<?xml version="1.0" encoding="iso-8859-1"?>
<!-- Generator: Adobe Illustrator 19.1.0, SVG Export Plug-In . SVG Version: 6.00 Build 0)  -->
<svg version="1.1" id="Capa_1" xmlns="http://www.w3.org/2000/svg" xmlns:xlink="http://www.w3.org/1999/xlink" x="0px" y="0px"
	 viewBox="0 0 490.175 490.175" style="enable-background:new 0 0 490.175 490.175;" xml:space="preserve">
<g>
	<g>
		<path d="M397.694,148.725l-25.1-21.7c-2.9-2.5-4-6.5-2.7-10.1l10.9-31.3c1.9-5.4-1.5-11.1-7-12.2l-32.7-6.3
			c-3.7-0.7-6.7-3.6-7.4-7.4l-6.2-32.6c-1.1-5.6-6.8-8.9-12.2-7l-31.3,10.9c-3.6,1.2-7.6,0.2-10.1-2.7l-21.8-25.1
			c-3.7-4.3-10.4-4.3-14.1,0l-21.7,25.1c-2.5,2.9-6.5,4-10.1,2.7l-31.3-10.9c-5.4-1.9-11.1,1.5-12.2,7l-6.3,32.6
			c-0.7,3.7-3.6,6.7-7.4,7.4l-32.6,6.3c-5.6,1.1-8.9,6.8-7,12.2l10.9,31.3c1.2,3.6,0.2,7.6-2.7,10.1l-25.1,21.7
			c-4.3,3.7-4.3,10.4,0,14.1l25.1,21.7c2.9,2.5,4,6.5,2.7,10.1l-10.9,31.3c-1.9,5.4,1.5,11.1,7,12.2l32.6,6.3
			c3.7,0.7,6.7,3.6,7.4,7.4l6.3,32.6c1.1,5.6,6.8,8.9,12.2,7l31.3-10.9c3.6-1.2,7.6-0.2,10.1,2.7l21.7,25.1c3.7,4.3,10.4,4.3,14.1,0
			l21.7-25.1c2.5-2.9,6.5-4,10.1-2.7l31.3,10.9c5.4,1.9,11.1-1.5,12.2-7l6.3-32.6c0.7-3.7,3.6-6.7,7.4-7.4l32.6-6.3
			c5.6-1.1,8.9-6.8,7-12.2l-10.9-31.3c-1.2-3.6-0.2-7.6,2.7-10.1l25.1-21.7C401.994,159.125,401.994,152.425,397.694,148.725z
			 M312.894,148.225l-30.7,25.9l9.6,39c1.8,7.3-6.2,13.1-12.6,9.2l-34.1-21.3l-34.1,21.2c-6.4,4-14.4-1.8-12.6-9.2l9.6-39
			l-30.7-25.9c-5.8-4.9-2.7-14.3,4.8-14.8l40-2.9l15.1-37.2c2.8-7,12.7-7,15.6,0l15.1,37.2l40,2.9
			C315.594,133.925,318.594,143.325,312.894,148.225z"/>
		<path d="M287.394,313.725l-12.4,14.4c-7.5,8.7-18.4,13.7-29.9,13.7c-11.5,0-22.4-5-29.9-13.7l-12.4-14.4l-18,6.2
			c-3.4,1.2-6.9,1.9-10.5,2.1v116.8c0,7.8,4.1,15.1,10.8,19.1l48.4,29.1c7.1,4.2,15.9,4.2,23,0l48.4-29.1c6.7-4,10.8-11.3,10.8-19.1
			v-116.8c-3.6-0.2-7.1-0.9-10.5-2.1L287.394,313.725z"/>
	</g>
</g>
<g>
</g>
<g>
</g>
<g>
</g>
<g>
</g>
<g>
</g>
<g>
</g>
<g>
</g>
<g>
</g>
<g>
</g>
<g>
</g>
<g>
</g>
<g>
</g>
<g>
</g>
<g>
</g>
<g>
</g>
</svg>
